<svg xmlns="http://www.w3.org/2000/svg" width="3840" height="2160" viewBox="0 0 3840 2160" role="img" aria-labelledby="title desc">
  <title id="title">Premium IdeaKDC education dashboard illustration</title>
  <desc id="desc">A sharp vector illustration of guided learning, practice, revision, and student progress tracking.</desc>
  <defs>
    <linearGradient id="bg" x1="0" x2="1" y1="0" y2="1">
      <stop offset="0" stop-color="#fff8ec"/>
      <stop offset=".48" stop-color="#e8eefc"/>
      <stop offset="1" stop-color="#f7e4d8"/>
    </linearGradient>
    <linearGradient id="deep" x1="0" x2="1" y1="0" y2="1">
      <stop offset="0" stop-color="#10182f"/>
      <stop offset="1" stop-color="#2347b7"/>
    </linearGradient>
    <linearGradient id="gold" x1="0" x2="1" y1="0" y2="1">
      <stop offset="0" stop-color="#f6d18d"/>
      <stop offset="1" stop-color="#c98540"/>
    </linearGradient>
    <filter id="softShadow" x="-20%" y="-20%" width="140%" height="140%">
      <feDropShadow dx="0" dy="40" stdDeviation="48" flood-color="#10182f" flood-opacity=".18"/>
    </filter>
  </defs>
  <rect width="3840" height="2160" rx="180" fill="url(#bg)"/>
  <circle cx="670" cy="370" r="270" fill="#c98540" opacity=".18"/>
  <circle cx="3300" cy="410" r="360" fill="#2347b7" opacity=".14"/>
  <circle cx="3180" cy="1740" r="300" fill="#1db97a" opacity=".13"/>
  <g filter="url(#softShadow)">
    <rect x="540" y="380" width="2760" height="1420" rx="104" fill="#fffaf3"/>
    <rect x="690" y="550" width="1070" height="1080" rx="76" fill="#10182f"/>
    <rect x="820" y="720" width="810" height="74" rx="37" fill="#fff8ec" opacity=".92"/>
    <rect x="820" y="865" width="620" height="52" rx="26" fill="#fff8ec" opacity=".5"/>
    <rect x="820" y="985" width="720" height="52" rx="26" fill="#fff8ec" opacity=".5"/>
    <rect x="820" y="1105" width="530" height="52" rx="26" fill="#fff8ec" opacity=".5"/>
    <rect x="820" y="1280" width="650" height="170" rx="42" fill="url(#gold)"/>
    <path d="M980 1365h300m-300 44h200" stroke="#10182f" stroke-width="26" stroke-linecap="round" opacity=".78"/>
    <rect x="1940" y="560" width="1000" height="330" rx="64" fill="#e8eefc"/>
    <rect x="2060" y="675" width="430" height="42" rx="21" fill="#2347b7" opacity=".85"/>
    <rect x="2060" y="758" width="650" height="32" rx="16" fill="#2347b7" opacity=".25"/>
    <path d="M2770 800c70-85 160-78 200-12" fill="none" stroke="#c98540" stroke-width="34" stroke-linecap="round"/>
    <rect x="1940" y="1010" width="470" height="470" rx="72" fill="#f7e4d8"/>
    <rect x="2550" y="1010" width="390" height="470" rx="72" fill="#e3f9f0"/>
    <path d="M2075 1245l92 92 140-190" fill="none" stroke="#2347b7" stroke-width="42" stroke-linecap="round" stroke-linejoin="round"/>
    <path d="M2685 1320c75-180 160-215 205-120" fill="none" stroke="#1db97a" stroke-width="42" stroke-linecap="round"/>
    <rect x="1940" y="1570" width="1000" height="90" rx="45" fill="url(#deep)" opacity=".95"/>
    <path d="M2070 1615h250m160 0h330" stroke="#fff8ec" stroke-width="28" stroke-linecap="round" opacity=".9"/>
  </g>
  <g fill="none" stroke="#10182f" stroke-linecap="round" opacity=".18">
    <path d="M420 1640c270-120 430-90 600 40"/>
    <path d="M3030 700c170 70 300 66 410-40"/>
    <path d="M3100 1510c190-30 330 10 420 120"/>
  </g>
</svg>
